<svg xmlns="http://www.w3.org/2000/svg" xml:space="preserve" viewBox="0 0 400 400">
  <path d="M367 238c-9 22-26 36-45 48-29 19-61 31-95 38-22 4-44 5-67 2-35-6-67-17-97-36a71 71 0 0 1-31-47c-7-30-4-60 10-89 2-4 5-8 9-11a352 352 0 0 1 138-68h29c23 2 46 5 68 13 34 11 64 27 86 55l2 2c12 14 15 29 10 47-4 16-9 31-17 46m-247 52a256 256 0 0 0 178-5c22-10 42-23 57-43 19-26 19-56-1-82-15-20-34-32-56-42a247 247 0 0 0-185-2c-23 9-45 22-61 42a67 67 0 0 0-17 45c1 19 10 36 23 49 18 18 39 29 62 38z"/>
  <path d="M22 222c1 11 3 22 6 32-5-5-8-12-11-18-4-9-6-19-8-29-1-10 1-19 6-26 4-6 8-11 14-15-5 18-8 36-7 56zm33-93 5-7c5-9 13-15 22-20a278 278 0 0 1 62-22l2 2c-33 13-64 29-91 51-2-2 0-3 0-4zm293 150c11-16 27-27 38-44 1 12-34 52-49 57l11-13zm35-50c-2 3-3 6-8 8 8-16 13-32 17-48 4 15 2 28-9 40zm-73 72 15-10c-4 12-42 31-59 30 14-7 29-12 44-20zM35 149l-16 15c0-6 20-32 30-38-5 9-8 16-14 23zm43 34v-25c-1-4 1-6 5-5h2c5-1 7 1 6 6v29l1 29c0 14 10 23 26 22 14-1 22-9 22-24v-56c0-5 1-7 6-6 8 0 8 0 8 6l-1 63c-1 12-8 20-19 25-12 5-25 5-37-1-11-5-17-14-18-27l-1-36zm200-30c14-3 27-3 40 1 3 1 6 2 5 6-1 6-2 7-8 5-9-3-18-3-27-2-16 1-29 14-31 30l1 19c3 16 15 27 33 28l17-1c3-1 5-2 5-6v-13c0-3-1-5-5-5s-5-2-5-6 3-4 5-4h12c3 0 4 1 4 4v33c0 2 0 4-2 4-19 5-37 7-54-1-14-7-22-19-24-34-2-18 1-35 16-49 5-4 11-7 18-9zm-95 96-5-2c-8-2-9-4-4-12l17 4c6 1 11 1 17-1 12-4 14-17 4-25-5-5-13-8-19-12-6-3-11-5-15-10-12-15-4-36 15-39 9-2 18-1 27 1 7 3 8 5 5 13l-6-2c-8-3-16-2-23-1-5 0-8 4-9 8-2 5-1 10 3 14 5 4 12 7 18 10 5 3 11 6 15 10 15 14 10 37-10 43-10 3-19 4-30 1z"/>
</svg>
